<?xml version="1.0" encoding="utf-8"?>
<!-- Generator: Adobe Illustrator 25.4.1, SVG Export Plug-In . SVG Version: 6.00 Build 0)  -->
<svg version="1.1" id="Layer_1" xmlns="http://www.w3.org/2000/svg" xmlns:xlink="http://www.w3.org/1999/xlink" x="0px" y="0px"
	 viewBox="0 0 95 80" style="enable-background:new 0 0 95 80;" xml:space="preserve">
<style type="text/css">
	.st0{fill:#FFFCEF;}
</style>
<g>
	<g id="FKbeHO.tif">
		<g>
			<path class="st0" d="M3.93,37.35c0.4,2.52,0.8,5.65,1.4,8.74c0.57,2.93,1.05,5.93,2.07,8.72c2.07,5.64,5.92,9.89,11.06,13.04
				c4.76,2.92,9.66,5.27,15.41,5.26c0.98,0,1.96,0.25,2.94,0.35c0.29,0.03,0.58-0.05,0.88-0.08c-0.16-1.03,0.64-0.72,1.06-0.65
				c1.87,0.32,3.55-0.41,5.04-1.23c3.77-2.06,7.37-4.29,9.81-8.11c2.25-3.51,4.52-6.94,5.3-11.13c0.64-3.44,0.04-6.31-2.91-8.66
				c-1.38-1.1-2.79-1.85-4.39-2.37c-1.84-0.6-3.72-1.27-5.64-0.45c-1.49,0.63-2.95,1.37-4.32,2.22c-1.19,0.74-2.75,1.49-3.25,2.63
				c-1.22,2.73-2.51,5.64-0.82,8.73c0.12,0.22,0.03,0.56,0.09,0.83c0.16,0.75,0.15,1.63,0.56,2.21c1.57,2.22,3.21,4.38,6.34,4.52
				c1.14,0.05,1.74,1.38,0.98,1.99c-2.31,1.85-4.66,3.76-7.88,3.54c-1.16-0.08-2.28-0.63-3.44-0.74c-4.63-0.45-8.11-2.97-11.32-6.04
				c-0.13-0.13-0.18-0.35-0.25-0.53c-0.19-0.53-0.2-1.33-0.57-1.56c-1.81-1.13-2.57-2.93-3.29-4.75c-0.5-1.28-1.32-2.67,0.56-3.67
				c0.22-0.12,0.23-0.81,0.2-1.23c-0.43-4.75-0.26-9.42,1.67-13.88c1.5-3.46,3.49-6.44,7.16-8c0.53-0.22,0.95-1.07,1.12-1.71
				c0.41-1.56,0.79-3.16,0.89-4.77c0.09-1.48-0.08-3-0.37-4.46c-0.23-1.14-0.87-2.19-1.24-3.31c-0.59-1.8-1.89-2.63-3.65-3.05
				c-4.27-1.02-7.4,1.17-10.15,3.86c-1.98,1.95-3.45,4.42-5.27,6.55C5.64,24.97,4.45,30.71,3.93,37.35z"/>
			<path class="st0" d="M58.49,73.72c-0.47-0.26-0.95-0.49-1.4-0.78c-0.88-0.55-1.48-1.21-1.37-2.39c0.12-1.25,0.62-2.09,1.82-2.54
				c2.53-0.94,5.25-1.58,7.51-2.97c2.76-1.7,5.69-3.65,7.51-6.23c1.92-2.72,3.06-6.08,2.98-9.79c-0.07-3.1-0.99-5.89-1.77-8.75
				c-0.43-1.58-1.43-3-1.97-4.56c-0.82-2.34-2.38-4.42-2.24-7.13c0.05-1.05-0.59-2.17-1.07-3.19c-1.79-3.79-1.38-7.73-1.07-11.72
				c0.21-2.82,1.58-4.48,4.09-5.51c1.27-0.52,2.44-1.27,3.57-1.87c0.8,1.1,1.5,2.15,2.29,3.13c0.81,1,1.7,1.94,2.57,2.9
				c0.06,0.07,0.17,0.17,0.23,0.16c1.77-0.52,2.4,1.11,3.42,1.9c0.74,0.57,1.18,1.54,1.76,2.32c0.36,0.49,0.89,0.94,1.07,1.49
				c0.99,3.17,1.94,6.35,2.83,9.55c0.67,2.39,1.22,4.81,1.83,7.22c0,1.87,0,3.75,0,5.62c-0.13,1.11-0.17,2.24-0.4,3.34
				c-0.58,2.72-0.88,5.58-1.98,8.07c-1.27,2.88-3.2,5.51-5,8.13c-2.89,4.2-7,7.01-11.51,9.13c-3.66,1.72-7.54,3-11.32,4.48
				C60.07,73.72,59.28,73.72,58.49,73.72z"/>
			<path class="st0" d="M3.93,37.35c0.52-6.64,1.71-12.39,5.8-17.18c1.82-2.13,3.28-4.6,5.27-6.55c2.74-2.69,5.87-4.88,10.15-3.86
				c1.75,0.42,3.06,1.25,3.65,3.05c0.37,1.12,1.01,2.17,1.24,3.31c0.29,1.46,0.46,2.98,0.37,4.46c-0.1,1.6-0.48,3.2-0.89,4.77
				c-0.17,0.64-0.59,1.49-1.12,1.71c-3.67,1.55-5.66,4.54-7.16,8c-1.93,4.46-2.1,9.13-1.67,13.88c0.04,0.41,0.03,1.11-0.2,1.23
				c-1.88,1-1.06,2.39-0.56,3.67c0.72,1.83,1.47,3.63,3.29,4.75c0.37,0.23,0.38,1.03,0.57,1.56c0.07,0.19,0.11,0.41,0.25,0.53
				c3.21,3.07,6.7,5.59,11.32,6.04c1.16,0.11,2.28,0.66,3.44,0.74c3.22,0.22,5.57-1.69,7.88-3.54c0.76-0.61,0.16-1.94-0.98-1.99
				c-3.13-0.14-4.77-2.3-6.34-4.52c-0.41-0.58-0.4-1.46-0.56-2.21c-0.06-0.27,0.04-0.6-0.09-0.83c-1.69-3.09-0.4-6,0.82-8.73
				c0.51-1.14,2.06-1.89,3.25-2.63c1.37-0.85,2.83-1.59,4.32-2.22c1.92-0.81,3.8-0.15,5.64,0.45c1.61,0.53,3.01,1.27,4.39,2.37
				c2.95,2.35,3.55,5.23,2.91,8.66c-0.78,4.18-3.05,7.61-5.3,11.13c-2.44,3.81-6.04,6.05-9.81,8.11c-1.5,0.82-3.17,1.54-5.04,1.23
				c-0.42-0.07-1.22-0.38-1.06,0.65c-0.29,0.03-0.59,0.11-0.88,0.08c-0.98-0.1-1.96-0.35-2.94-0.35
				c-5.75,0.02-10.65-2.34-15.41-5.26C13.32,64.7,9.48,60.44,7.4,54.81c-1.02-2.78-1.51-5.78-2.07-8.72
				C4.73,43,4.32,39.88,3.93,37.35z"/>
		</g>
	</g>
</g>
</svg>
