<svg width="43" height="36" viewBox="0 0 43 36" fill="none" xmlns="http://www.w3.org/2000/svg">
<path d="M18.96 0.448449L3.1296 6.99877C2.24928 7.36309 2.2584 8.61373 3.14424 8.96485L19.0406 15.2687C20.4373 15.8226 21.9928 15.8226 23.3894 15.2687L39.2861 8.96461C40.1717 8.61373 40.1813 7.36333 39.3005 6.99901L23.4706 0.448209C22.0263 -0.149403 20.404 -0.149403 18.9598 0.448209" fill="#FFFCEF"/>
<path d="M22.6255 18.7108V34.4589C22.6255 35.2077 23.3808 35.7208 24.077 35.4448L41.7905 28.5693C41.988 28.491 42.1575 28.3551 42.2769 28.1793C42.3963 28.0035 42.4601 27.7959 42.4601 27.5834V11.8355C42.4601 11.0865 41.7048 10.5736 41.0086 10.8496L23.2951 17.7251C23.0976 17.8035 22.9282 17.9394 22.8088 18.1152C22.6894 18.291 22.6255 18.4983 22.6255 18.7108Z" fill="#FFFCEF"/>
<path d="M18.4891 19.5235L13.2322 22.0617L12.6984 22.3197L1.60128 27.6369C0.89808 27.9763 0 27.4636 0 26.6822V11.9016C0 11.6188 0.14496 11.3748 0.33936 11.1912C0.419112 11.1117 0.50959 11.0439 0.60816 10.9896C0.87312 10.8304 1.25136 10.788 1.57296 10.9152L18.4008 17.5828C19.2562 17.9222 19.3234 19.1205 18.4891 19.5235Z" fill="#FFFCEF"/>
</svg>
