<?xml version="1.0" encoding="utf-8"?>
<!-- Generator: Adobe Illustrator 25.4.1, SVG Export Plug-In . SVG Version: 6.00 Build 0)  -->
<svg version="1.1" id="Layer_1" xmlns="http://www.w3.org/2000/svg" xmlns:xlink="http://www.w3.org/1999/xlink" x="0px" y="0px"
	 viewBox="0 0 490 90" style="enable-background:new 0 0 490 90;" xml:space="preserve">
<style type="text/css">
	.st0{fill:#FFFCEF;}
</style>
<g>
	<g id="FKbeHO.tif_00000025420323180258603120000013744466270002757530_">
		<g>
			<path class="st0" d="M1.89,34.17c0.4,2.52,0.8,5.65,1.4,8.74c0.57,2.93,1.05,5.93,2.07,8.72c2.07,5.64,5.92,9.89,11.06,13.04
				c4.76,2.92,9.66,5.27,15.41,5.26c0.98,0,1.96,0.25,2.94,0.35c0.29,0.03,0.58-0.05,0.88-0.08c-0.16-1.03,0.64-0.72,1.06-0.65
				c1.87,0.32,3.55-0.41,5.04-1.23c3.77-2.06,7.37-4.29,9.81-8.11c2.25-3.51,4.52-6.94,5.3-11.13c0.64-3.44,0.04-6.31-2.91-8.66
				c-1.38-1.1-2.79-1.85-4.39-2.37c-1.84-0.6-3.72-1.27-5.64-0.45c-1.49,0.63-2.95,1.37-4.32,2.22c-1.19,0.74-2.75,1.49-3.25,2.63
				c-1.22,2.73-2.51,5.64-0.82,8.73c0.12,0.22,0.03,0.56,0.09,0.83c0.16,0.75,0.15,1.63,0.56,2.21c1.57,2.22,3.21,4.38,6.34,4.52
				c1.14,0.05,1.74,1.38,0.98,1.99c-2.31,1.85-4.66,3.76-7.88,3.54c-1.16-0.08-2.28-0.63-3.44-0.74c-4.63-0.45-8.11-2.97-11.32-6.04
				c-0.13-0.13-0.18-0.35-0.25-0.53c-0.19-0.53-0.2-1.33-0.57-1.56c-1.81-1.13-2.57-2.93-3.29-4.75c-0.5-1.28-1.32-2.67,0.56-3.67
				c0.22-0.12,0.23-0.81,0.2-1.23c-0.43-4.75-0.26-9.42,1.67-13.88c1.5-3.46,3.49-6.44,7.16-8c0.53-0.22,0.95-1.07,1.12-1.71
				c0.41-1.56,0.79-3.16,0.89-4.77c0.09-1.48-0.08-3-0.37-4.46c-0.23-1.14-0.87-2.19-1.24-3.31c-0.59-1.8-1.89-2.63-3.65-3.05
				c-4.27-1.02-7.4,1.17-10.15,3.86c-1.98,1.95-3.45,4.42-5.27,6.55C3.6,21.78,2.41,27.52,1.89,34.17z"/>
			<path class="st0" d="M56.46,70.53c-0.47-0.26-0.95-0.49-1.4-0.78c-0.88-0.55-1.48-1.21-1.37-2.39c0.12-1.25,0.62-2.09,1.82-2.53
				c2.53-0.94,5.25-1.58,7.51-2.97c2.76-1.7,5.69-3.65,7.51-6.23c1.92-2.72,3.06-6.08,2.98-9.79c-0.07-3.1-0.99-5.89-1.77-8.75
				c-0.43-1.58-1.43-3-1.97-4.56c-0.82-2.34-2.38-4.42-2.24-7.13c0.05-1.05-0.59-2.17-1.07-3.19c-1.79-3.79-1.38-7.73-1.07-11.72
				c0.21-2.82,1.58-4.48,4.09-5.51c1.27-0.52,2.44-1.27,3.57-1.87c0.8,1.1,1.5,2.15,2.29,3.13c0.81,1,1.7,1.94,2.57,2.9
				c0.06,0.07,0.17,0.17,0.23,0.16c1.77-0.52,2.4,1.11,3.42,1.9c0.74,0.57,1.18,1.54,1.76,2.32c0.36,0.49,0.89,0.94,1.07,1.49
				c0.99,3.17,1.94,6.35,2.83,9.55c0.67,2.39,1.22,4.81,1.83,7.22c0,1.87,0,3.75,0,5.62c-0.13,1.11-0.17,2.24-0.4,3.34
				c-0.58,2.72-0.88,5.58-1.98,8.07c-1.27,2.88-3.2,5.51-5,8.13c-2.89,4.2-7,7.01-11.51,9.13c-3.66,1.72-7.54,3-11.32,4.48
				C58.04,70.53,57.25,70.53,56.46,70.53z"/>
			<path class="st0" d="M1.89,34.17c0.52-6.64,1.71-12.39,5.8-17.18c1.82-2.13,3.28-4.6,5.27-6.55c2.74-2.69,5.87-4.88,10.15-3.86
				c1.75,0.42,3.06,1.25,3.65,3.05c0.37,1.12,1.01,2.17,1.24,3.31c0.29,1.46,0.46,2.98,0.37,4.46c-0.1,1.6-0.48,3.2-0.89,4.77
				c-0.17,0.64-0.59,1.49-1.12,1.71c-3.67,1.55-5.66,4.54-7.16,8c-1.93,4.46-2.1,9.13-1.67,13.88c0.04,0.41,0.03,1.11-0.2,1.23
				c-1.88,1-1.06,2.39-0.56,3.67c0.72,1.83,1.47,3.63,3.29,4.75c0.37,0.23,0.38,1.03,0.57,1.56c0.07,0.19,0.11,0.41,0.25,0.53
				c3.21,3.07,6.7,5.59,11.32,6.04c1.16,0.11,2.28,0.66,3.44,0.74c3.22,0.22,5.57-1.69,7.88-3.54c0.76-0.61,0.16-1.94-0.98-1.99
				c-3.13-0.14-4.77-2.3-6.34-4.52c-0.41-0.58-0.4-1.46-0.56-2.21c-0.06-0.27,0.04-0.6-0.09-0.83c-1.69-3.09-0.4-6,0.82-8.73
				c0.51-1.14,2.06-1.89,3.25-2.63c1.37-0.85,2.83-1.59,4.32-2.22c1.92-0.81,3.8-0.15,5.64,0.45c1.61,0.53,3.01,1.27,4.39,2.37
				c2.95,2.35,3.55,5.23,2.91,8.66c-0.78,4.18-3.05,7.61-5.3,11.13c-2.44,3.81-6.04,6.05-9.81,8.11c-1.5,0.82-3.17,1.54-5.04,1.23
				c-0.42-0.07-1.22-0.38-1.06,0.65c-0.29,0.03-0.59,0.11-0.88,0.08c-0.98-0.1-1.96-0.35-2.94-0.35
				c-5.75,0.02-10.65-2.34-15.41-5.26c-5.14-3.15-8.99-7.41-11.06-13.04c-1.02-2.78-1.51-5.78-2.07-8.72
				C2.7,39.81,2.29,36.69,1.89,34.17z"/>
		</g>
	</g>
	<g>
		<path class="st0" d="M90.95,16.86c-2.56-6.36-3.35-8.83-6.89-10.33V5.65h14.13v0.88c-2.74,0.71-3.09,2.21-1.06,7.33l20.21,49.97
			l10.95-26.84l-8.3-20.13c-2.56-6.27-3.53-9-6.97-10.33V5.65h14.39v0.88c-2.91,0.71-3.35,2.12-1.15,7.42l6.44,15.71l5.47-12.89
			c2.12-4.86,3.18-8.65-1.24-10.24V5.65h9.62v0.88c-2.74,1.06-3.71,2.03-7.24,10.24l-6.09,14.3l13.24,32.49l18.19-46.7
			c1.94-5.03,2.91-8.83-1.85-10.33V5.65h10.42v0.88c-2.91,1.06-4.24,2.38-7.33,10.33l-21.63,55.53h-1.41L128.81,38.4l-13.86,33.99
			h-1.32L90.95,16.86z"/>
		<path class="st0" d="M168.18,70.98c4.33-1.15,4.42-2.56,4.42-14.3v-8.74c0-11.39,0.09-11.48-4.24-12.01v-0.97l11.12-5.38v27.1
			c0,11.74,0.09,13.15,4.5,14.3v0.88h-15.8L168.18,70.98L168.18,70.98z M171.71,17.83c0-2.3,1.85-3.97,4.06-3.97
			c2.21,0,4.06,1.68,4.06,3.97s-1.85,4.15-4.06,4.15C173.56,21.98,171.71,20.13,171.71,17.83z"/>
		<path class="st0" d="M183.98,70.98c3.97-1.15,4.06-2.56,4.06-14.21V19.78c0-9.8,0.09-10.24-3.8-10.42V8.3l10.59-5.21v46.7
			l18.1-13.51c3.8-2.74,2.74-4.68-0.27-5.03v-0.88h11.48v0.88c-2.83,0.79-5.65,2.38-10.15,5.65l-13.77,10.24l20.3,20.04
			c3,3,4.06,3.53,5.12,3.8v0.88h-15.36v-0.88c2.82-0.44,3.71-1.59,0.35-4.94l-15.8-15.8v6.53c0,11.65,0.09,13.07,4.42,14.21v0.88
			h-15.27L183.98,70.98L183.98,70.98z"/>
		<path class="st0" d="M225.65,70.98c4.33-1.15,4.42-2.56,4.42-14.3v-8.74c0-11.39,0.09-11.48-4.24-12.01v-0.97l11.12-5.38v27.1
			c0,11.74,0.09,13.15,4.5,14.3v0.88h-15.8L225.65,70.98L225.65,70.98z M229.18,17.83c0-2.3,1.85-3.97,4.06-3.97
			c2.21,0,4.06,1.68,4.06,3.97s-1.85,4.15-4.06,4.15C231.04,21.98,229.18,20.13,229.18,17.83z"/>
		<path class="st0" d="M243.19,63.65V31.61h-3.8v-0.97c4.5-0.62,8.65-4.24,9.53-13.33h1.06v13.07h9.89v1.24h-9.89v29.22
			c0,6.71,0.62,9.89,4.68,9.89c2.65,0,4.59-1.41,5.56-2.65l0.62,0.53c-0.97,1.41-3.27,3.8-8.39,3.8
			C246.54,72.39,243.19,68.95,243.19,63.65z"/>
		<path class="st0" d="M255.11,51.2c0-13.42,12.09-21.81,21.98-21.81c10.06,0,22.25,8.39,22.25,21.81
			c0,13.68-12.18,21.63-22.25,21.63C267.21,72.83,255.11,64.89,255.11,51.2z M292.1,51.2c0-14.83-6.89-20.83-15.01-20.83
			c-7.95,0-14.83,6-14.83,20.83c0,15.27,6.89,20.57,14.83,20.57C285.21,71.77,292.1,66.48,292.1,51.2z"/>
		<path class="st0" d="M297.56,70.98c3.97-1.15,4.06-2.56,4.06-14.3v-8.74c0-11.21,0.09-11.39-4.33-12.01v-0.97l11.12-5.38v10.68
			l4.15-3.8c4.33-3.8,8.92-6.8,14.12-6.8c7.86,0,11.48,3.62,11.48,11.57v15.45c0,11.74,0,13.15,4.06,14.3v0.88h-15.27v-0.88
			c4.33-1.15,4.41-2.56,4.41-14.3V39.55c0-5.92-2.65-8.03-6.8-8.03c-3.71,0-7.24,2.12-12.01,6.44l-4.15,3.71v15.01
			c0,11.74,0.09,13.15,4.42,14.3v0.88h-15.27L297.56,70.98L297.56,70.98z"/>
		<path class="st0" d="M337.44,77.78c0-4.41,4.68-7.15,9.27-8.83c-4.06-0.79-6.27-3.09-6.27-6.09c0-3.53,2.65-5.65,4.68-7.06
			l1.41-0.97c-4.15-2.21-7.24-5.91-7.24-11.12c0-8.92,9-14.21,16.86-14.21c3,0,6.18,0.79,9,2.21c2.74-2.3,6.89-3.88,9.45-3.88
			c2.12,0,2.82,0.97,2.82,2.74c0,1.59-1.06,2.47-2.3,2.47c-2.03,0-3.62-2.03-5.74-2.03c-1.41,0-2.3,0.35-3.44,1.15
			c4.15,2.47,7.24,6.36,7.24,11.57c0,8.92-9.18,13.51-17.04,13.51c-2.91,0-6-0.62-8.65-1.85l-1.41,0.88c-1.68,1.24-3,2.38-3,3.97
			c0,1.68,1.68,2.3,4.15,2.56l18.1,2.3c6.62,0.79,11.03,2.65,11.03,8.92c0,6.8-7.77,12.89-20.48,12.89
			C346.62,86.87,337.44,83.87,337.44,77.78z M355.89,85.81c11.65,0,17.39-5.38,17.39-9.18c0-4.06-4.41-4.94-8.74-5.39l-15.89-2.03
			c-4.24,1.77-6.45,3.97-6.45,8.03C342.2,82.81,347.59,85.81,355.89,85.81z M366.66,43.7c0-9.27-4.59-13.15-10.51-13.15
			c-5.83,0-10.33,3.88-10.33,13.15s4.59,12.45,10.33,12.45C362.07,56.15,366.66,52.97,366.66,43.7z"/>
		<path class="st0" d="M378.51,61.18V49.26c0-12.54,0.09-12.71-4.24-13.33v-0.97l11.12-5.38V64.1c0,5.21,2.47,6.71,6.53,6.71
			c3,0,6.88-1.24,12.71-6.36l2.74-2.38v-12.8c0-12.54,0.09-12.71-4.24-13.33v-0.97l11.12-5.38v27.1c0,11.74,0,13.15,5.12,14.3v0.88
			h-12.01v-8.39l-2.74,2.38c-5.3,4.68-9.98,6.71-14.83,6.71C382.31,72.57,378.51,69.04,378.51,61.18z"/>
		<path class="st0" d="M416.57,51.03c0-13.95,11.48-21.54,21.01-21.54c7.86,0,15.71,3.88,17.39,14.04h-30.46
			c-0.53,2.21-0.8,4.77-0.8,7.68c0,15.63,7.77,19.95,16.86,19.95c5.38,0,9.89-1.68,13.15-4.68l0.53,0.88
			c-3.44,3.27-8.47,5.38-15.54,5.38C427.87,72.74,416.57,65.59,416.57,51.03z M424.69,42.46h23.92
			c-0.71-9.53-5.74-11.92-11.03-11.92C432.64,30.55,426.99,33.81,424.69,42.46z"/>
		<path class="st0" d="M483.43,62.42c0-5.21-3.35-7.59-12.45-9.45c-9.62-1.85-14.3-4.86-14.3-11.65c0-7.5,7.06-11.74,15.18-11.74
			c6.44,0,8.83,2.38,11.03,2.38c0.88,0,1.5-0.35,1.68-1.32h1.15v9h-1.15c-2.12-6.18-6-9-12.71-9c-6.62,0-11.12,2.65-11.12,7.95
			c0,4.77,3.35,6.36,11.74,8.12c10.86,2.21,15.63,5.38,15.63,12.18c0,8.47-7.95,13.77-16.24,13.77c-7.59,0-10.07-3.27-12.98-3.27
			c-1.06,0-1.59,0.62-1.77,1.59h-1.15v-11.3h1.06c1.59,7.24,6.36,11.92,14.83,11.92C479.55,71.6,483.43,67.54,483.43,62.42z"/>
	</g>
</g>
</svg>
